<svg width="19" height="19" viewBox="0 0 19 19" fill="none" xmlns="http://www.w3.org/2000/svg">
<path d="M16.7586 7.89476L11.8542 9.46409L9.39218 14.7483C9.05387 15.4446 8.28121 15.8156 7.52602 15.6432L7.22699 15.5755L8.20919 10.6296L4.42228 11.841C4.32843 11.8716 4.23239 11.8868 4.13417 11.8912L3.44445 11.9174C3.27857 11.9239 3.12797 11.817 3.07777 11.6598L2.92717 11.1927C2.87478 11.0291 3.26111 10.5118 3.26111 10.5118L0.89948 8.03663C0.818722 7.95151 0.853644 7.80964 0.967142 7.77253L1.60448 7.56955C2.04101 7.42986 2.51683 7.49097 2.90316 7.73761L4.407 8.69361L7.25318 7.78345L4.65146 5.33451L4.82826 5.13589C5.27133 4.63824 6.00034 4.51165 6.58529 4.8325L10.1561 6.85582L14.9099 5.33451C16.4356 4.84559 17.8369 5.44146 18.0508 6.11153C18.269 6.79907 17.348 7.70705 16.7586 7.89476ZM16.7783 12.8734H11.4286C11.2169 12.8734 11.0466 13.0436 11.0466 13.2554C11.0466 13.4671 11.2169 13.6373 11.4286 13.6373H16.7783C16.9878 13.6373 17.1602 13.4671 17.1602 13.2554C17.1581 13.0436 16.9878 12.8734 16.7783 12.8734ZM6.14221 12.8734H3.61252C3.4008 12.8734 3.23055 13.0436 3.23055 13.2554C3.23055 13.4671 3.4008 13.6373 3.61252 13.6373H6.14221C6.35393 13.6373 6.52418 13.4671 6.52418 13.2554C6.52418 13.0436 6.35393 12.8734 6.14221 12.8734Z" fill="#808184"/>
</svg>
