<svg width="46" height="46" viewBox="0 0 46 46" fill="none" xmlns="http://www.w3.org/2000/svg">
<path d="M40.5727 19.1133L28.6989 22.9127L22.7382 35.7061C21.9191 37.3918 20.0484 38.2901 18.2201 37.8726L17.4961 37.7088L19.8741 25.7346L10.7058 28.6674C10.4785 28.7413 10.246 28.7783 10.0082 28.7889L8.33838 28.8523C7.93677 28.8682 7.57216 28.6092 7.45062 28.2288L7.086 27.0979C6.95918 26.7016 7.8945 25.4492 7.8945 25.4492L2.17687 19.4568C1.98135 19.2507 2.0659 18.9072 2.34068 18.8174L3.8837 18.3259C4.94057 17.9878 6.09255 18.1357 7.02787 18.7328L10.6688 21.0474L17.5595 18.8438L11.2606 12.9148L11.6886 12.4339C12.7614 11.2291 14.5263 10.9226 15.9425 11.6994L24.5877 16.598L36.0969 12.9148C39.7906 11.7311 43.1832 13.1737 43.701 14.796C44.2295 16.4606 41.9995 18.6589 40.5727 19.1133ZM40.6203 31.1668H27.6684C27.1558 31.1668 26.7437 31.579 26.7437 32.0916C26.7437 32.6042 27.1558 33.0164 27.6684 33.0164H40.6203C41.1276 33.0164 41.545 32.6042 41.545 32.0916C41.5398 31.579 41.1276 31.1668 40.6203 31.1668ZM14.8698 31.1668H8.74527C8.2327 31.1668 7.82052 31.579 7.82052 32.0916C7.82052 32.6042 8.2327 33.0164 8.74527 33.0164H14.8698C15.3824 33.0164 15.7946 32.6042 15.7946 32.0916C15.7946 31.579 15.3824 31.1668 14.8698 31.1668Z" fill="#808184"/>
</svg>
