<svg width="19" height="19" viewBox="0 0 19 19" fill="none" xmlns="http://www.w3.org/2000/svg">
<path d="M2.24136 7.89476L7.14578 9.46409L9.60782 14.7483C9.94613 15.4446 10.7188 15.8156 11.474 15.6432L11.773 15.5755L10.7908 10.6296L14.5777 11.841C14.6716 11.8716 14.7676 11.8868 14.8658 11.8912L15.5555 11.9174C15.7214 11.9239 15.872 11.817 15.9222 11.6598L16.0728 11.1927C16.1252 11.0291 15.7389 10.5118 15.7389 10.5118L18.1005 8.03663C18.1813 7.95151 18.1464 7.80964 18.0329 7.77253L17.3955 7.56955C16.959 7.42986 16.4832 7.49097 16.0968 7.73761L14.593 8.69361L11.7468 7.78345L14.3485 5.33451L14.1717 5.13589C13.7287 4.63824 12.9997 4.51165 12.4147 4.8325L8.84389 6.85582L4.09007 5.33451C2.56439 4.84559 1.16313 5.44146 0.949232 6.11153C0.730967 6.79907 1.65204 7.70705 2.24136 7.89476ZM2.22172 12.8734H7.5714C7.78312 12.8734 7.95336 13.0436 7.95336 13.2554C7.95336 13.4671 7.78312 13.6373 7.5714 13.6373H2.22172C2.01218 13.6373 1.83975 13.4671 1.83975 13.2554C1.84193 13.0436 2.01218 12.8734 2.22172 12.8734ZM12.8578 12.8734H15.3875C15.5992 12.8734 15.7694 13.0436 15.7694 13.2554C15.7694 13.4671 15.5992 13.6373 15.3875 13.6373H12.8578C12.6461 13.6373 12.4758 13.4671 12.4758 13.2554C12.4758 13.0436 12.6461 12.8734 12.8578 12.8734Z" fill="#808184"/>
</svg>
