<svg width="27" height="170" viewBox="0 0 27 170" fill="none" xmlns="http://www.w3.org/2000/svg">
<circle cx="13.5" cy="156.5" r="13.5" fill="#808184"/>
<path d="M21.6157 3.46587L16.4916 4.71284L13.9192 8.91162C13.5657 9.46487 12.7585 9.7597 11.9694 9.62269L11.657 9.56893L12.6832 5.63897L8.72663 6.60151C8.62857 6.62579 8.52823 6.63793 8.42561 6.6414L7.70499 6.66221C7.53167 6.66742 7.37432 6.58243 7.32187 6.45756L7.16452 6.08642C7.10979 5.95635 7.51343 5.54531 7.51343 5.54531L5.04598 3.5786C4.96161 3.51096 4.99809 3.39823 5.11668 3.36875L5.78257 3.20746C6.23866 3.09646 6.7358 3.14502 7.13943 3.341L8.71066 4.10063L11.6844 3.37742L8.96607 1.43152L9.15079 1.27369C9.61372 0.878269 10.3754 0.777679 10.9865 1.03262L14.7174 2.64033L19.6842 1.43152C21.2782 1.04303 22.7423 1.5165 22.9657 2.04893C23.1938 2.59524 22.2314 3.31672 21.6157 3.46587ZM21.6362 7.42184H16.0469C15.8257 7.42184 15.6478 7.55712 15.6478 7.72535C15.6478 7.89358 15.8257 8.02885 16.0469 8.02885H21.6362C21.8552 8.02885 22.0353 7.89358 22.0353 7.72535C22.033 7.55712 21.8552 7.42184 21.6362 7.42184ZM10.5236 7.42184H7.88058C7.65938 7.42184 7.4815 7.55712 7.4815 7.72535C7.4815 7.89358 7.65938 8.02885 7.88058 8.02885H10.5236C10.7448 8.02885 10.9227 7.89358 10.9227 7.72535C10.9227 7.55712 10.7448 7.42184 10.5236 7.42184Z" fill="white"/>
</svg>
