<svg width="27" height="157" viewBox="0 0 27 157" fill="none" xmlns="http://www.w3.org/2000/svg">
<circle cx="13.5" cy="143.5" r="13.5" fill="#808184"/>
<path d="M21.6157 2.57329L16.4916 3.82026L13.9192 8.01904C13.5657 8.57229 12.7585 8.86712 11.9694 8.73011L11.657 8.67635L12.6832 4.74639L8.72663 5.70893C8.62857 5.73321 8.52823 5.74535 8.42561 5.74882L7.70499 5.76963C7.53167 5.77484 7.37432 5.68986 7.32187 5.56499L7.16452 5.19384C7.10979 5.06377 7.51343 4.65273 7.51343 4.65273L5.04598 2.68602C4.96161 2.61838 4.99809 2.50565 5.11668 2.47617L5.78257 2.31488C6.23866 2.20388 6.7358 2.25244 7.13943 2.44842L8.71066 3.20805L11.6844 2.48484L8.96607 0.538938L9.15079 0.381115C9.61372 -0.014309 10.3754 -0.1149 10.9865 0.140045L14.7174 1.74776L19.6842 0.538938C21.2782 0.150451 22.7423 0.623919 22.9657 1.15635C23.1938 1.70266 22.2314 2.42414 21.6157 2.57329ZM21.6362 6.52926H16.0469C15.8257 6.52926 15.6478 6.66454 15.6478 6.83277C15.6478 7.001 15.8257 7.13628 16.0469 7.13628H21.6362C21.8552 7.13628 22.0353 7.001 22.0353 6.83277C22.033 6.66454 21.8552 6.52926 21.6362 6.52926ZM10.5236 6.52926H7.88058C7.65938 6.52926 7.4815 6.66454 7.4815 6.83277C7.4815 7.001 7.65938 7.13628 7.88058 7.13628H10.5236C10.7448 7.13628 10.9227 7.001 10.9227 6.83277C10.9227 6.66454 10.7448 6.52926 10.5236 6.52926Z" fill="white"/>
<path d="M21.6157 142.573L16.4916 143.82L13.9192 148.019C13.5657 148.572 12.7585 148.867 11.9694 148.73L11.657 148.676L12.6832 144.746L8.72663 145.709C8.62857 145.733 8.52823 145.745 8.42561 145.749L7.70499 145.77C7.53167 145.775 7.37432 145.69 7.32187 145.565L7.16452 145.194C7.10979 145.064 7.51343 144.653 7.51343 144.653L5.04598 142.686C4.96161 142.618 4.99809 142.506 5.11668 142.476L5.78257 142.315C6.23866 142.204 6.7358 142.252 7.13943 142.448L8.71066 143.208L11.6844 142.485L8.96607 140.539L9.15079 140.381C9.61372 139.986 10.3754 139.885 10.9865 140.14L14.7174 141.748L19.6842 140.539C21.2782 140.15 22.7423 140.624 22.9657 141.156C23.1938 141.703 22.2314 142.424 21.6157 142.573ZM21.6362 146.529H16.0469C15.8257 146.529 15.6478 146.665 15.6478 146.833C15.6478 147.001 15.8257 147.136 16.0469 147.136H21.6362C21.8552 147.136 22.0353 147.001 22.0353 146.833C22.033 146.665 21.8552 146.529 21.6362 146.529ZM10.5236 146.529H7.88058C7.65938 146.529 7.4815 146.665 7.4815 146.833C7.4815 147.001 7.65938 147.136 7.88058 147.136H10.5236C10.7448 147.136 10.9227 147.001 10.9227 146.833C10.9227 146.665 10.7448 146.529 10.5236 146.529Z" fill="white"/>
</svg>
