<svg width="31" height="31" viewBox="0 0 31 31" fill="none" xmlns="http://www.w3.org/2000/svg">
<path d="M20.667 7.75004V5.16671H10.3337V7.75004M9.04199 23.25C7.62116 23.25 6.45866 24.4125 6.45866 25.8334C6.45866 27.2542 7.62116 28.4167 9.04199 28.4167C10.4628 28.4167 11.6253 27.2542 11.6253 25.8334C11.6253 24.4125 10.4628 23.25 9.04199 23.25ZM21.9587 23.25C20.5378 23.25 19.3753 24.4125 19.3753 25.8334C19.3753 27.2542 20.5378 28.4167 21.9587 28.4167C23.3795 28.4167 24.542 27.2542 24.542 25.8334C24.542 24.4125 23.3795 23.25 21.9587 23.25ZM9.30033 19.1167V18.9875L10.4628 16.7917H20.0212C20.9253 16.7917 21.8295 16.275 22.217 15.5L27.2545 6.45837L25.0587 5.16671L20.0212 14.2084H10.9795L5.55449 2.58337H1.29199V5.16671H3.87533L8.52533 14.9834L6.71699 18.0834C6.58783 18.4709 6.45866 18.8584 6.45866 19.375C6.45866 20.7959 7.62116 21.9584 9.04199 21.9584H24.542V19.375H9.55866C9.42949 19.375 9.30033 19.2459 9.30033 19.1167Z" fill="#656565"/>
</svg>
