<svg width="42" height="24" viewBox="0 0 42 24" fill="none" xmlns="http://www.w3.org/2000/svg">
<path d="M38.5727 6.87107L26.6989 10.2007L20.7382 21.412C19.9191 22.8893 18.0484 23.6765 16.2201 23.3107L15.4961 23.1671L17.8741 12.6736L8.70576 15.2437C8.47853 15.3085 8.24602 15.341 8.00823 15.3502L6.33838 15.4058C5.93677 15.4197 5.57216 15.1928 5.45062 14.8593L5.086 13.8683C4.95918 13.521 5.8945 12.4235 5.8945 12.4235L0.176866 7.17207C-0.0186533 6.99147 0.0658958 6.69046 0.34068 6.61174L1.8837 6.18107C2.94057 5.88469 4.09255 6.01435 5.02787 6.53764L8.66877 8.56597L15.5595 6.63489L9.26061 1.43904L9.68864 1.01763C10.7614 -0.0382072 12.5263 -0.306799 13.9425 0.373941L22.5877 4.66677L34.0969 1.43904C37.7906 0.401726 41.1832 1.66596 41.701 3.08764C42.2295 4.54637 39.9995 6.47281 38.5727 6.87107ZM38.6203 17.4341H25.6684C25.1558 17.4341 24.7437 17.7953 24.7437 18.2445C24.7437 18.6937 25.1558 19.0549 25.6684 19.0549H38.6203C39.1276 19.0549 39.545 18.6937 39.545 18.2445C39.5398 17.7953 39.1276 17.4341 38.6203 17.4341ZM12.8698 17.4341H6.74527C6.2327 17.4341 5.82052 17.7953 5.82052 18.2445C5.82052 18.6937 6.2327 19.0549 6.74527 19.0549H12.8698C13.3824 19.0549 13.7946 18.6937 13.7946 18.2445C13.7946 17.7953 13.3824 17.4341 12.8698 17.4341Z" fill="#808184"/>
</svg>
