<svg width="36" height="36" viewBox="0 0 36 36" fill="none" xmlns="http://www.w3.org/2000/svg">
<path d="M12.75 23.25C18.549 23.25 23.25 18.549 23.25 12.75C23.25 6.95101 18.549 2.25 12.75 2.25C6.95101 2.25 2.25 6.95101 2.25 12.75C2.25 18.549 6.95101 23.25 12.75 23.25Z" fill="#808184"/>
<path d="M12.75 21C17.3063 21 21 17.3063 21 12.75C21 8.19365 17.3063 4.5 12.75 4.5C8.19365 4.5 4.5 8.19365 4.5 12.75C4.5 17.3063 8.19365 21 12.75 21Z" fill="#EEEEEE"/>
<path d="M12 6H13.5V12.75H12V6Z" fill="#808184"/>
<path d="M16.9911 15.7156L15.7183 16.9884L12.1123 13.3831L13.3851 12.1104L16.9911 15.7156Z" fill="#808184"/>
<path d="M12.75 14.25C13.5784 14.25 14.25 13.5784 14.25 12.75C14.25 11.9216 13.5784 11.25 12.75 11.25C11.9216 11.25 11.25 11.9216 11.25 12.75C11.25 13.5784 11.9216 14.25 12.75 14.25Z" fill="#808184"/>
<path d="M12.75 13.5C13.1642 13.5 13.5 13.1642 13.5 12.75C13.5 12.3358 13.1642 12 12.75 12C12.3358 12 12 12.3358 12 12.75C12 13.1642 12.3358 13.5 12.75 13.5Z" fill="#808184"/>
<path d="M8.92513 31.5001L19.7251 13.4251C20.3251 12.4501 21.7501 12.4501 22.2751 13.4251L33.0751 31.5001C33.6751 32.4751 32.9251 33.7501 31.8001 33.7501H10.2001C9.07513 33.7501 8.32513 32.4751 8.92513 31.5001Z" fill="#808184"/>
<path d="M19.7998 29.925C19.7998 29.775 19.7998 29.625 19.8748 29.475C19.9498 29.325 20.0248 29.25 20.0998 29.1C20.1748 28.95 20.3248 28.95 20.4748 28.875C20.6248 28.8 20.7748 28.8 20.9248 28.8C21.0748 28.8 21.2998 28.8 21.4498 28.875C21.5998 28.95 21.7498 29.025 21.8248 29.1C21.8998 29.175 21.9748 29.325 22.0498 29.475C22.1248 29.625 22.1248 29.775 22.1248 29.925C22.1248 30.075 22.1248 30.225 22.0498 30.375C21.9748 30.525 21.8998 30.6 21.8248 30.75C21.7498 30.9 21.5998 30.9 21.4498 30.975C21.2998 31.05 21.1498 31.05 20.9248 31.05C20.6998 31.05 20.5498 31.05 20.4748 30.975C20.3998 30.9 20.1748 30.825 20.0998 30.75C20.0248 30.675 19.9498 30.525 19.8748 30.375C19.7998 30.225 19.7998 30.075 19.7998 29.925ZM21.8998 27.6H20.1748L19.8748 20.25H22.1248L21.8998 27.6Z" fill="#EEEEEE"/>
</svg>
