<svg width="27" height="27" viewBox="0 0 27 27" fill="none" xmlns="http://www.w3.org/2000/svg">
<circle cx="13.5" cy="13.5" r="13.5" fill="#808184"/>
<path d="M21.6157 11.9364L16.4916 13.3593L13.9192 18.1506C13.5657 18.7819 12.7585 19.1183 11.9694 18.962L11.657 18.9006L12.6832 14.4161L8.72663 15.5145C8.62857 15.5422 8.52823 15.556 8.42561 15.56L7.70499 15.5838C7.53167 15.5897 7.37432 15.4927 7.32187 15.3502L7.16452 14.9267C7.10979 14.7783 7.51343 14.3093 7.51343 14.3093L5.04598 12.065C4.96161 11.9878 4.99809 11.8592 5.11668 11.8256L5.78257 11.6415C6.23866 11.5149 6.7358 11.5703 7.13943 11.7939L8.71066 12.6607L11.6844 11.8355L8.96607 9.61498L9.15079 9.43489C9.61372 8.98367 10.3754 8.86889 10.9865 9.15981L14.7174 10.9944L19.6842 9.61498C21.2782 9.17168 22.7423 9.71196 22.9657 10.3195C23.1938 10.9429 22.2314 11.7662 21.6157 11.9364ZM21.6362 16.4506H16.0469C15.8257 16.4506 15.6478 16.6049 15.6478 16.7969C15.6478 16.9889 15.8257 17.1432 16.0469 17.1432H21.6362C21.8552 17.1432 22.0353 16.9889 22.0353 16.7969C22.033 16.6049 21.8552 16.4506 21.6362 16.4506ZM10.5236 16.4506H7.88058C7.65938 16.4506 7.4815 16.6049 7.4815 16.7969C7.4815 16.9889 7.65938 17.1432 7.88058 17.1432H10.5236C10.7448 17.1432 10.9227 16.9889 10.9227 16.7969C10.9227 16.6049 10.7448 16.4506 10.5236 16.4506Z" fill="white"/>
</svg>
