<svg width="36" height="36" viewBox="0 0 36 36" fill="none" xmlns="http://www.w3.org/2000/svg">
<path d="M18 36C27.9411 36 36 27.9411 36 18C36 8.05887 27.9411 0 18 0C8.05887 0 0 8.05887 0 18C0 27.9411 8.05887 36 18 36Z" fill="#808184"/>
<path d="M18.0003 32.1426C25.8112 32.1426 32.1431 25.8107 32.1431 17.9998C32.1431 10.1889 25.8112 3.85693 18.0003 3.85693C10.1894 3.85693 3.85742 10.1889 3.85742 17.9998C3.85742 25.8107 10.1894 32.1426 18.0003 32.1426Z" fill="#EEEEEE"/>
<path d="M16.7144 6.42871H19.2858V18.0001H16.7144V6.42871Z" fill="#808184"/>
<path d="M25.2703 23.0838L23.0885 25.2656L16.9067 19.0852L19.0886 16.9033L25.2703 23.0838Z" fill="#808184"/>
<path d="M18.0001 20.5716C19.4203 20.5716 20.5716 19.4203 20.5716 18.0001C20.5716 16.58 19.4203 15.4287 18.0001 15.4287C16.58 15.4287 15.4287 16.58 15.4287 18.0001C15.4287 19.4203 16.58 20.5716 18.0001 20.5716Z" fill="#808184"/>
<path d="M18.0001 19.2858C18.7102 19.2858 19.2858 18.7102 19.2858 18.0001C19.2858 17.29 18.7102 16.7144 18.0001 16.7144C17.29 16.7144 16.7144 17.29 16.7144 18.0001C16.7144 18.7102 17.29 19.2858 18.0001 19.2858Z" fill="#808184"/>
</svg>
