<svg width="36" height="36" viewBox="0 0 36 36" fill="none" xmlns="http://www.w3.org/2000/svg">
<path d="M29.4545 22.5V4.5C29.4545 2.025 27.9818 0 26.1818 0H3.27273C1.47273 0 0 2.025 0 4.5V22.5C0 24.975 1.47273 27 3.27273 27H26.1818C27.9818 27 29.4545 24.975 29.4545 22.5ZM14.7273 20.25C12.0109 20.25 9.81818 17.235 9.81818 13.5C9.81818 9.765 12.0109 6.75 14.7273 6.75C17.4436 6.75 19.6364 9.765 19.6364 13.5C19.6364 17.235 17.4436 20.25 14.7273 20.25ZM36 6.75V31.5C36 33.975 34.5273 36 32.7273 36H4.90909V31.5H32.7273V6.75H36Z" fill="#808184"/>
</svg>
